<svg width="240" height="240" viewBox="0 0 240 240" fill="none" xmlns="http://www.w3.org/2000/svg" role="img" aria-label="Ovelhinha guia">
  <circle cx="120" cy="120" r="104" fill="#E8F7F4"/>
  <circle cx="84" cy="94" r="32" fill="#FFFDF5"/>
  <circle cx="119" cy="74" r="38" fill="#FFFDF5"/>
  <circle cx="156" cy="95" r="33" fill="#FFFDF5"/>
  <circle cx="73" cy="126" r="35" fill="#FFFDF5"/>
  <circle cx="120" cy="128" r="48" fill="#FFFDF5"/>
  <circle cx="168" cy="127" r="36" fill="#FFFDF5"/>
  <path d="M66 130c-17 5-28 21-25 38 4 20 23 31 42 25" fill="#D39B62"/>
  <path d="M174 130c17 5 28 21 25 38-4 20-23 31-42 25" fill="#D39B62"/>
  <ellipse cx="120" cy="132" rx="44" ry="39" fill="#F4C28B"/>
  <circle cx="103" cy="127" r="6" fill="#172033"/>
  <circle cx="137" cy="127" r="6" fill="#172033"/>
  <path d="M111 148c5 7 14 8 20 0" stroke="#172033" stroke-width="6" stroke-linecap="round"/>
  <path d="M104 112c-11-6-23-6-35 1" stroke="#D39B62" stroke-width="9" stroke-linecap="round"/>
  <path d="M136 112c11-6 23-6 35 1" stroke="#D39B62" stroke-width="9" stroke-linecap="round"/>
  <path d="M85 185h70c17 0 31 14 31 31v2H54v-2c0-17 14-31 31-31Z" fill="#7BC96F"/>
  <path d="M91 197c18 13 40 13 58 0" stroke="#4F8D45" stroke-width="7" stroke-linecap="round"/>
  <circle cx="58" cy="62" r="13" fill="#F7BE45"/>
  <path d="M58 43v38M39 62h38" stroke="#F7BE45" stroke-width="7" stroke-linecap="round"/>
</svg>
