<svg width="220" height="220" viewBox="0 0 220 220" fill="none" xmlns="http://www.w3.org/2000/svg">
  <rect width="220" height="220" rx="34" fill="#EFF8D9"/>
  <ellipse cx="103" cy="126" rx="66" ry="49" fill="#6F8F4E"/>
  <path d="M61 119C80 82 126 82 145 119C127 143 79 143 61 119Z" fill="#9AC06F"/>
  <path d="M88 91V149M119 91V149M65 122H142" stroke="#54723C" stroke-width="7" stroke-linecap="round"/>
  <circle cx="170" cy="121" r="25" fill="#9AC06F"/>
  <circle cx="179" cy="115" r="5" fill="#172033"/>
  <path d="M190 128C196 132 203 132 209 127" stroke="#54723C" stroke-width="6" stroke-linecap="round"/>
  <path d="M59 149L35 169M83 168L67 196M130 168L146 196M150 149L176 170" stroke="#6F8F4E" stroke-width="15" stroke-linecap="round"/>
  <path d="M35 169C30 176 36 184 47 181" stroke="#54723C" stroke-width="7" stroke-linecap="round"/>
</svg>
